<mxfile host="app.diagrams.net" agent="Mozilla/5.0 (Macintosh; Intel Mac OS X 10_15_7) AppleWebKit/537.36 (KHTML, like Gecko) Chrome/133.0.0.0 Safari/537.36" version="26.1.0">
  <diagram name="Page-1" id="iqPSVVqtBokqhcwBR_CY">
    <mxGraphModel grid="0" page="1" gridSize="10" guides="1" tooltips="1" connect="1" arrows="1" fold="1" pageScale="1" pageWidth="850" pageHeight="1100" background="none" math="0" shadow="0">
      <root>
        <mxCell id="0" />
        <mxCell id="1" parent="0" />
        <mxCell id="MyfAIEl0TEhj5KPefulC-456" value="" style="rounded=0;whiteSpace=wrap;html=1;strokeColor=none;" vertex="1" parent="1">
          <mxGeometry x="-1" y="5" width="786" height="1099" as="geometry" />
        </mxCell>
        <mxCell id="MyfAIEl0TEhj5KPefulC-187" value="" style="endArrow=classic;html=1;rounded=0;strokeColor=#CC6600;strokeWidth=2;" edge="1" parent="1">
          <mxGeometry width="50" height="50" relative="1" as="geometry">
            <mxPoint x="520" y="80" as="sourcePoint" />
            <mxPoint x="410" y="100" as="targetPoint" />
            <Array as="points">
              <mxPoint x="490" y="80" />
              <mxPoint x="490" y="100" />
            </Array>
          </mxGeometry>
        </mxCell>
        <mxCell id="MyfAIEl0TEhj5KPefulC-199" value="" style="endArrow=none;html=1;rounded=0;exitX=1;exitY=0.5;exitDx=0;exitDy=0;endFill=0;strokeColor=#0000CC;strokeWidth=2;" edge="1" parent="1" source="MyfAIEl0TEhj5KPefulC-154">
          <mxGeometry width="50" height="50" relative="1" as="geometry">
            <mxPoint x="290" y="227" as="sourcePoint" />
            <mxPoint x="380" y="320" as="targetPoint" />
            <Array as="points">
              <mxPoint x="380" y="230" />
            </Array>
          </mxGeometry>
        </mxCell>
        <mxCell id="MyfAIEl0TEhj5KPefulC-258" value="Updated&lt;div&gt;Prompt&lt;/div&gt;" style="edgeLabel;html=1;align=center;verticalAlign=middle;resizable=0;points=[];" connectable="0" vertex="1" parent="MyfAIEl0TEhj5KPefulC-199">
          <mxGeometry x="0.4927" y="1" relative="1" as="geometry">
            <mxPoint x="-1" y="-9" as="offset" />
          </mxGeometry>
        </mxCell>
        <mxCell id="MyfAIEl0TEhj5KPefulC-211" value="" style="endArrow=classic;html=1;rounded=0;startArrow=none;startFill=0;strokeColor=#0000CC;strokeWidth=2;" edge="1" parent="1">
          <mxGeometry width="50" height="50" relative="1" as="geometry">
            <mxPoint x="540" y="400" as="sourcePoint" />
            <mxPoint x="600" y="350" as="targetPoint" />
            <Array as="points">
              <mxPoint x="600" y="400" />
            </Array>
          </mxGeometry>
        </mxCell>
        <mxCell id="MyfAIEl0TEhj5KPefulC-255" value="Initial&lt;div&gt;Evaluation&lt;/div&gt;" style="endArrow=none;html=1;rounded=0;endFill=0;strokeColor=#009900;strokeWidth=2;" edge="1" parent="1">
          <mxGeometry x="-0.3846" width="50" height="50" relative="1" as="geometry">
            <mxPoint x="179.5" y="770" as="sourcePoint" />
            <mxPoint x="249.5" y="700" as="targetPoint" />
            <Array as="points">
              <mxPoint x="179.5" y="700" />
            </Array>
            <mxPoint as="offset" />
          </mxGeometry>
        </mxCell>
        <mxCell id="MyfAIEl0TEhj5KPefulC-144" value="Agent Two" style="swimlane;whiteSpace=wrap;html=1;container=0;flipV=1;" vertex="1" parent="1">
          <mxGeometry x="9.5" y="640" width="760" height="420" as="geometry" />
        </mxCell>
        <mxCell id="MyfAIEl0TEhj5KPefulC-244" value="" style="endArrow=none;html=1;rounded=0;strokeColor=#0000CC;strokeWidth=2;endFill=0;" edge="1" parent="MyfAIEl0TEhj5KPefulC-144">
          <mxGeometry width="50" height="50" relative="1" as="geometry">
            <mxPoint x="80" y="280" as="sourcePoint" />
            <mxPoint x="240" y="60" as="targetPoint" />
            <Array as="points">
              <mxPoint x="80" y="220" />
              <mxPoint x="320" y="220" />
              <mxPoint x="320" y="60" />
            </Array>
          </mxGeometry>
        </mxCell>
        <mxCell id="MyfAIEl0TEhj5KPefulC-256" value="Initial&lt;div&gt;Prompt&lt;/div&gt;" style="edgeLabel;html=1;align=center;verticalAlign=middle;resizable=0;points=[];" connectable="0" vertex="1" parent="MyfAIEl0TEhj5KPefulC-244">
          <mxGeometry x="-0.119" y="-1" relative="1" as="geometry">
            <mxPoint x="62" y="-111" as="offset" />
          </mxGeometry>
        </mxCell>
        <mxCell id="MyfAIEl0TEhj5KPefulC-145" value="" style="shape=document;whiteSpace=wrap;html=1;boundedLbl=1;" vertex="1" parent="MyfAIEl0TEhj5KPefulC-144">
          <mxGeometry x="10" y="280" width="120" height="80" as="geometry" />
        </mxCell>
        <mxCell id="MyfAIEl0TEhj5KPefulC-146" value="" style="shape=document;whiteSpace=wrap;html=1;boundedLbl=1;fillColor=#1ba1e2;strokeColor=#006EAF;fontColor=#ffffff;" vertex="1" parent="MyfAIEl0TEhj5KPefulC-144">
          <mxGeometry x="20" y="290" width="120" height="80" as="geometry" />
        </mxCell>
        <mxCell id="MyfAIEl0TEhj5KPefulC-147" value="" style="shape=document;whiteSpace=wrap;html=1;boundedLbl=1;" vertex="1" parent="MyfAIEl0TEhj5KPefulC-144">
          <mxGeometry x="30" y="300" width="120" height="80" as="geometry" />
        </mxCell>
        <mxCell id="MyfAIEl0TEhj5KPefulC-148" value="Prompts" style="shape=document;whiteSpace=wrap;html=1;boundedLbl=1;" vertex="1" parent="MyfAIEl0TEhj5KPefulC-144">
          <mxGeometry x="40" y="310" width="120" height="80" as="geometry" />
        </mxCell>
        <mxCell id="MyfAIEl0TEhj5KPefulC-228" value="Start Socialising" style="rounded=0;whiteSpace=wrap;html=1;fillColor=#1ba1e2;strokeColor=#006EAF;fontColor=#ffffff;" vertex="1" parent="MyfAIEl0TEhj5KPefulC-144">
          <mxGeometry x="20" y="30" width="120" height="60" as="geometry" />
        </mxCell>
        <mxCell id="MyfAIEl0TEhj5KPefulC-237" value="" style="endArrow=classic;html=1;rounded=0;strokeColor=#0000CC;strokeWidth=2;exitX=0.25;exitY=1;exitDx=0;exitDy=0;" edge="1" parent="MyfAIEl0TEhj5KPefulC-144" source="MyfAIEl0TEhj5KPefulC-228">
          <mxGeometry width="50" height="50" relative="1" as="geometry">
            <mxPoint x="60" y="180" as="sourcePoint" />
            <mxPoint x="50" y="280" as="targetPoint" />
          </mxGeometry>
        </mxCell>
        <mxCell id="MyfAIEl0TEhj5KPefulC-203" value="Evaluate&lt;div&gt;Updated Prompt&lt;/div&gt;" style="rounded=1;whiteSpace=wrap;html=1;fillColor=#60a917;strokeColor=#2D7600;fontColor=#ffffff;" vertex="1" parent="MyfAIEl0TEhj5KPefulC-144">
          <mxGeometry x="390" y="120" width="120" height="60" as="geometry" />
        </mxCell>
        <mxCell id="MyfAIEl0TEhj5KPefulC-204" value="Update Prompt" style="rounded=1;whiteSpace=wrap;html=1;fillColor=#1ba1e2;strokeColor=#006EAF;fontColor=#ffffff;" vertex="1" parent="MyfAIEl0TEhj5KPefulC-144">
          <mxGeometry x="289" y="270" width="120" height="60" as="geometry" />
        </mxCell>
        <mxCell id="MyfAIEl0TEhj5KPefulC-190" value="Evaluate Prompt" style="rounded=1;whiteSpace=wrap;html=1;fillColor=#60a917;strokeColor=#2D7600;fontColor=#ffffff;" vertex="1" parent="MyfAIEl0TEhj5KPefulC-144">
          <mxGeometry x="140" y="120" width="120" height="60" as="geometry" />
        </mxCell>
        <mxCell id="MyfAIEl0TEhj5KPefulC-243" value="" style="endArrow=classic;html=1;rounded=0;startArrow=none;startFill=0;strokeColor=#0000CC;strokeWidth=2;exitX=0.75;exitY=1;exitDx=0;exitDy=0;" edge="1" parent="MyfAIEl0TEhj5KPefulC-144" source="MyfAIEl0TEhj5KPefulC-228">
          <mxGeometry width="50" height="50" relative="1" as="geometry">
            <mxPoint x="120" y="90" as="sourcePoint" />
            <mxPoint x="140" y="150" as="targetPoint" />
            <Array as="points">
              <mxPoint x="110" y="150" />
            </Array>
          </mxGeometry>
        </mxCell>
        <mxCell id="MyfAIEl0TEhj5KPefulC-260" value="" style="endArrow=classic;html=1;rounded=0;strokeColor=#0000CC;strokeWidth=2;entryX=1;entryY=0.5;entryDx=0;entryDy=0;" edge="1" parent="MyfAIEl0TEhj5KPefulC-144" target="MyfAIEl0TEhj5KPefulC-148">
          <mxGeometry width="50" height="50" relative="1" as="geometry">
            <mxPoint x="320" y="330" as="sourcePoint" />
            <mxPoint x="160" y="340" as="targetPoint" />
            <Array as="points">
              <mxPoint x="320" y="350" />
            </Array>
          </mxGeometry>
        </mxCell>
        <mxCell id="MyfAIEl0TEhj5KPefulC-262" value="Calculate&amp;nbsp;&lt;div&gt;New Score&lt;/div&gt;" style="rounded=0;whiteSpace=wrap;html=1;fillColor=#fad7ac;strokeColor=#b46504;" vertex="1" parent="MyfAIEl0TEhj5KPefulC-144">
          <mxGeometry x="620" y="30" width="120" height="60" as="geometry" />
        </mxCell>
        <mxCell id="MyfAIEl0TEhj5KPefulC-263" value="Confidence Scores" style="shape=table;startSize=20;container=1;collapsible=0;childLayout=tableLayout;fontSize=12;" vertex="1" parent="MyfAIEl0TEhj5KPefulC-144">
          <mxGeometry x="620" y="170" width="120" height="80" as="geometry" />
        </mxCell>
        <mxCell id="MyfAIEl0TEhj5KPefulC-289" style="shape=tableRow;horizontal=0;startSize=0;swimlaneHead=0;swimlaneBody=0;strokeColor=inherit;top=0;left=0;bottom=0;right=0;collapsible=0;dropTarget=0;fillColor=none;points=[[0,0.5],[1,0.5]];portConstraint=eastwest;fontSize=16;" vertex="1" parent="MyfAIEl0TEhj5KPefulC-263">
          <mxGeometry y="20" width="120" height="20" as="geometry" />
        </mxCell>
        <mxCell id="MyfAIEl0TEhj5KPefulC-290" value="Prompt 1" style="shape=partialRectangle;html=1;whiteSpace=wrap;connectable=0;strokeColor=inherit;overflow=hidden;fillColor=none;top=0;left=0;bottom=0;right=0;pointerEvents=1;fontSize=12;" vertex="1" parent="MyfAIEl0TEhj5KPefulC-289">
          <mxGeometry width="82" height="20" as="geometry">
            <mxRectangle width="82" height="20" as="alternateBounds" />
          </mxGeometry>
        </mxCell>
        <mxCell id="MyfAIEl0TEhj5KPefulC-291" value="3.7" style="shape=partialRectangle;html=1;whiteSpace=wrap;connectable=0;strokeColor=inherit;overflow=hidden;fillColor=none;top=0;left=0;bottom=0;right=0;pointerEvents=1;fontSize=12;" vertex="1" parent="MyfAIEl0TEhj5KPefulC-289">
          <mxGeometry x="82" width="38" height="20" as="geometry">
            <mxRectangle width="38" height="20" as="alternateBounds" />
          </mxGeometry>
        </mxCell>
        <mxCell id="MyfAIEl0TEhj5KPefulC-264" value="" style="shape=tableRow;horizontal=0;startSize=0;swimlaneHead=0;swimlaneBody=0;strokeColor=inherit;top=0;left=0;bottom=0;right=0;collapsible=0;dropTarget=0;fillColor=none;points=[[0,0.5],[1,0.5]];portConstraint=eastwest;fontSize=16;" vertex="1" parent="MyfAIEl0TEhj5KPefulC-263">
          <mxGeometry y="40" width="120" height="20" as="geometry" />
        </mxCell>
        <mxCell id="MyfAIEl0TEhj5KPefulC-265" value="Prompt 2" style="shape=partialRectangle;html=1;whiteSpace=wrap;connectable=0;strokeColor=inherit;overflow=hidden;fillColor=none;top=0;left=0;bottom=0;right=0;pointerEvents=1;fontSize=12;" vertex="1" parent="MyfAIEl0TEhj5KPefulC-264">
          <mxGeometry width="82" height="20" as="geometry">
            <mxRectangle width="82" height="20" as="alternateBounds" />
          </mxGeometry>
        </mxCell>
        <mxCell id="MyfAIEl0TEhj5KPefulC-266" value="2.1" style="shape=partialRectangle;html=1;whiteSpace=wrap;connectable=0;strokeColor=inherit;overflow=hidden;fillColor=none;top=0;left=0;bottom=0;right=0;pointerEvents=1;fontSize=12;" vertex="1" parent="MyfAIEl0TEhj5KPefulC-264">
          <mxGeometry x="82" width="38" height="20" as="geometry">
            <mxRectangle width="38" height="20" as="alternateBounds" />
          </mxGeometry>
        </mxCell>
        <mxCell id="MyfAIEl0TEhj5KPefulC-267" value="" style="shape=tableRow;horizontal=0;startSize=0;swimlaneHead=0;swimlaneBody=0;strokeColor=inherit;top=0;left=0;bottom=0;right=0;collapsible=0;dropTarget=0;fillColor=none;points=[[0,0.5],[1,0.5]];portConstraint=eastwest;fontSize=16;" vertex="1" parent="MyfAIEl0TEhj5KPefulC-263">
          <mxGeometry y="60" width="120" height="20" as="geometry" />
        </mxCell>
        <mxCell id="MyfAIEl0TEhj5KPefulC-268" value="Prompt 3" style="shape=partialRectangle;html=1;whiteSpace=wrap;connectable=0;strokeColor=inherit;overflow=hidden;fillColor=none;top=0;left=0;bottom=0;right=0;pointerEvents=1;fontSize=12;" vertex="1" parent="MyfAIEl0TEhj5KPefulC-267">
          <mxGeometry width="82" height="20" as="geometry">
            <mxRectangle width="82" height="20" as="alternateBounds" />
          </mxGeometry>
        </mxCell>
        <mxCell id="MyfAIEl0TEhj5KPefulC-269" value="5.4" style="shape=partialRectangle;html=1;whiteSpace=wrap;connectable=0;strokeColor=#b46504;overflow=hidden;fillColor=#fad7ac;top=0;left=0;bottom=0;right=0;pointerEvents=1;fontSize=12;" vertex="1" parent="MyfAIEl0TEhj5KPefulC-267">
          <mxGeometry x="82" width="38" height="20" as="geometry">
            <mxRectangle width="38" height="20" as="alternateBounds" />
          </mxGeometry>
        </mxCell>
        <mxCell id="MyfAIEl0TEhj5KPefulC-274" value="" style="endArrow=classic;html=1;rounded=0;startArrow=none;startFill=0;strokeColor=#0000CC;strokeWidth=2;entryX=0.25;entryY=0;entryDx=0;entryDy=0;" edge="1" parent="MyfAIEl0TEhj5KPefulC-144" target="MyfAIEl0TEhj5KPefulC-203">
          <mxGeometry width="50" height="50" relative="1" as="geometry">
            <mxPoint x="380" y="30" as="sourcePoint" />
            <mxPoint x="430" y="110" as="targetPoint" />
            <Array as="points">
              <mxPoint x="420" y="30" />
            </Array>
          </mxGeometry>
        </mxCell>
        <mxCell id="MyfAIEl0TEhj5KPefulC-275" value="" style="endArrow=none;html=1;rounded=0;strokeColor=#0000CC;strokeWidth=2;endFill=0;" edge="1" parent="MyfAIEl0TEhj5KPefulC-144">
          <mxGeometry width="50" height="50" relative="1" as="geometry">
            <mxPoint x="410" y="310" as="sourcePoint" />
            <mxPoint x="540" y="60" as="targetPoint" />
            <Array as="points">
              <mxPoint x="540" y="310" />
            </Array>
          </mxGeometry>
        </mxCell>
        <mxCell id="MyfAIEl0TEhj5KPefulC-276" value="" style="endArrow=none;html=1;rounded=0;strokeColor=#009900;strokeWidth=2;exitX=0.75;exitY=0;exitDx=0;exitDy=0;endFill=0;" edge="1" parent="MyfAIEl0TEhj5KPefulC-144" source="MyfAIEl0TEhj5KPefulC-203">
          <mxGeometry width="50" height="50" relative="1" as="geometry">
            <mxPoint x="500" y="30" as="sourcePoint" />
            <mxPoint x="540" y="60" as="targetPoint" />
            <Array as="points">
              <mxPoint x="480" y="60" />
            </Array>
          </mxGeometry>
        </mxCell>
        <mxCell id="MyfAIEl0TEhj5KPefulC-280" value="" style="endArrow=classic;html=1;rounded=0;strokeColor=#CC6600;strokeWidth=2;startArrow=baseDash;startFill=0;" edge="1" parent="MyfAIEl0TEhj5KPefulC-144">
          <mxGeometry width="50" height="50" relative="1" as="geometry">
            <mxPoint x="550" y="210" as="sourcePoint" />
            <mxPoint x="620" y="50" as="targetPoint" />
            <Array as="points">
              <mxPoint x="570" y="210" />
              <mxPoint x="570" y="50" />
            </Array>
          </mxGeometry>
        </mxCell>
        <mxCell id="MyfAIEl0TEhj5KPefulC-282" value="" style="endArrow=baseDash;html=1;rounded=0;strokeWidth=2;strokeColor=#CC6600;startArrow=none;startFill=0;endFill=0;exitX=0.75;exitY=0;exitDx=0;exitDy=0;" edge="1" parent="MyfAIEl0TEhj5KPefulC-144" source="MyfAIEl0TEhj5KPefulC-204">
          <mxGeometry width="50" height="50" relative="1" as="geometry">
            <mxPoint x="409" y="250" as="sourcePoint" />
            <mxPoint x="529" y="250" as="targetPoint" />
            <Array as="points">
              <mxPoint x="379" y="250" />
            </Array>
          </mxGeometry>
        </mxCell>
        <mxCell id="MyfAIEl0TEhj5KPefulC-285" value="Updated Score" style="edgeLabel;html=1;align=center;verticalAlign=middle;resizable=0;points=[];" connectable="0" vertex="1" parent="MyfAIEl0TEhj5KPefulC-282">
          <mxGeometry x="-0.1132" y="1" relative="1" as="geometry">
            <mxPoint x="16" as="offset" />
          </mxGeometry>
        </mxCell>
        <mxCell id="MyfAIEl0TEhj5KPefulC-283" value="" style="endArrow=classic;html=1;rounded=0;strokeColor=#CC6600;strokeWidth=2;startArrow=baseDash;startFill=0;" edge="1" parent="MyfAIEl0TEhj5KPefulC-144">
          <mxGeometry width="50" height="50" relative="1" as="geometry">
            <mxPoint x="550" y="250" as="sourcePoint" />
            <mxPoint x="620" y="70" as="targetPoint" />
            <Array as="points">
              <mxPoint x="590" y="250" />
              <mxPoint x="590" y="70" />
            </Array>
          </mxGeometry>
        </mxCell>
        <mxCell id="MyfAIEl0TEhj5KPefulC-286" value="" style="endArrow=classic;html=1;rounded=0;strokeColor=#CC6600;strokeWidth=2;endFill=1;" edge="1" parent="MyfAIEl0TEhj5KPefulC-144">
          <mxGeometry width="50" height="50" relative="1" as="geometry">
            <mxPoint x="660" y="170" as="sourcePoint" />
            <mxPoint x="660" y="90" as="targetPoint" />
            <Array as="points">
              <mxPoint x="660" y="150" />
            </Array>
          </mxGeometry>
        </mxCell>
        <mxCell id="MyfAIEl0TEhj5KPefulC-287" value="" style="endArrow=none;html=1;rounded=0;strokeColor=#CC6600;strokeWidth=2;endFill=0;startArrow=classic;startFill=1;" edge="1" parent="MyfAIEl0TEhj5KPefulC-144">
          <mxGeometry width="50" height="50" relative="1" as="geometry">
            <mxPoint x="700" y="170" as="sourcePoint" />
            <mxPoint x="700" y="90" as="targetPoint" />
            <Array as="points">
              <mxPoint x="700" y="140" />
            </Array>
          </mxGeometry>
        </mxCell>
        <mxCell id="MyfAIEl0TEhj5KPefulC-299" value="New&lt;div&gt;Score&lt;/div&gt;" style="edgeLabel;html=1;align=center;verticalAlign=middle;resizable=0;points=[];" connectable="0" vertex="1" parent="MyfAIEl0TEhj5KPefulC-287">
          <mxGeometry x="0.1449" y="-4" relative="1" as="geometry">
            <mxPoint y="1" as="offset" />
          </mxGeometry>
        </mxCell>
        <mxCell id="MyfAIEl0TEhj5KPefulC-295" value="" style="shape=image;html=1;verticalAlign=top;verticalLabelPosition=bottom;labelBackgroundColor=#ffffff;imageAspect=0;aspect=fixed;image=https://cdn0.iconfinder.com/data/icons/phosphor-duotone-vol-3/256/robot-duotone-128.png;imageBackground=default;" vertex="1" parent="MyfAIEl0TEhj5KPefulC-144">
          <mxGeometry x="122" y="101" width="36" height="36" as="geometry" />
        </mxCell>
        <mxCell id="MyfAIEl0TEhj5KPefulC-296" value="" style="shape=image;html=1;verticalAlign=top;verticalLabelPosition=bottom;labelBackgroundColor=#ffffff;imageAspect=0;aspect=fixed;image=https://cdn0.iconfinder.com/data/icons/phosphor-duotone-vol-3/256/robot-duotone-128.png;imageBackground=default;" vertex="1" parent="MyfAIEl0TEhj5KPefulC-144">
          <mxGeometry x="373" y="101" width="36" height="36" as="geometry" />
        </mxCell>
        <mxCell id="MyfAIEl0TEhj5KPefulC-297" value="" style="shape=image;html=1;verticalAlign=top;verticalLabelPosition=bottom;labelBackgroundColor=#ffffff;imageAspect=0;aspect=fixed;image=https://cdn0.iconfinder.com/data/icons/phosphor-duotone-vol-3/256/robot-duotone-128.png;imageBackground=default;" vertex="1" parent="MyfAIEl0TEhj5KPefulC-144">
          <mxGeometry x="271" y="252" width="36" height="36" as="geometry" />
        </mxCell>
        <mxCell id="MyfAIEl0TEhj5KPefulC-305" value="" style="endArrow=classic;html=1;rounded=0;strokeWidth=2;strokeColor=#009900;" edge="1" parent="MyfAIEl0TEhj5KPefulC-144">
          <mxGeometry width="50" height="50" relative="1" as="geometry">
            <mxPoint x="200" y="60" as="sourcePoint" />
            <mxPoint x="220" y="60" as="targetPoint" />
          </mxGeometry>
        </mxCell>
        <mxCell id="MyfAIEl0TEhj5KPefulC-306" value="" style="endArrow=classic;html=1;rounded=0;strokeWidth=2;strokeColor=#009900;" edge="1" parent="MyfAIEl0TEhj5KPefulC-144">
          <mxGeometry width="50" height="50" relative="1" as="geometry">
            <mxPoint x="500" y="60" as="sourcePoint" />
            <mxPoint x="520" y="60" as="targetPoint" />
          </mxGeometry>
        </mxCell>
        <mxCell id="MyfAIEl0TEhj5KPefulC-371" value="" style="shape=image;html=1;verticalAlign=top;verticalLabelPosition=bottom;labelBackgroundColor=#ffffff;imageAspect=0;aspect=fixed;image=https://cdn0.iconfinder.com/data/icons/phosphor-duotone-vol-3/256/robot-duotone-128.png;imageBackground=default;" vertex="1" parent="MyfAIEl0TEhj5KPefulC-144">
          <mxGeometry x="589" y="349" width="36" height="36" as="geometry" />
        </mxCell>
        <mxCell id="MyfAIEl0TEhj5KPefulC-372" value="" style="endArrow=classic;html=1;rounded=0;strokeWidth=2;" edge="1" parent="MyfAIEl0TEhj5KPefulC-144">
          <mxGeometry width="50" height="50" relative="1" as="geometry">
            <mxPoint x="584" y="276" as="sourcePoint" />
            <mxPoint x="710" y="276" as="targetPoint" />
          </mxGeometry>
        </mxCell>
        <mxCell id="MyfAIEl0TEhj5KPefulC-376" value="Social Message" style="edgeLabel;html=1;align=center;verticalAlign=middle;resizable=0;points=[];" connectable="0" vertex="1" parent="MyfAIEl0TEhj5KPefulC-372">
          <mxGeometry x="-0.086" y="1" relative="1" as="geometry">
            <mxPoint as="offset" />
          </mxGeometry>
        </mxCell>
        <mxCell id="MyfAIEl0TEhj5KPefulC-375" value="" style="endArrow=classic;html=1;rounded=0;strokeWidth=2;strokeColor=#CC6600;" edge="1" parent="MyfAIEl0TEhj5KPefulC-144">
          <mxGeometry width="50" height="50" relative="1" as="geometry">
            <mxPoint x="584" y="336" as="sourcePoint" />
            <mxPoint x="710" y="336" as="targetPoint" />
          </mxGeometry>
        </mxCell>
        <mxCell id="MyfAIEl0TEhj5KPefulC-379" value="Score" style="edgeLabel;html=1;align=center;verticalAlign=middle;resizable=0;points=[];" connectable="0" vertex="1" parent="MyfAIEl0TEhj5KPefulC-375">
          <mxGeometry x="-0.0794" y="-1" relative="1" as="geometry">
            <mxPoint as="offset" />
          </mxGeometry>
        </mxCell>
        <mxCell id="MyfAIEl0TEhj5KPefulC-374" value="" style="endArrow=classic;html=1;rounded=0;strokeWidth=2;strokeColor=#009900;" edge="1" parent="MyfAIEl0TEhj5KPefulC-144">
          <mxGeometry width="50" height="50" relative="1" as="geometry">
            <mxPoint x="584" y="316" as="sourcePoint" />
            <mxPoint x="710" y="316" as="targetPoint" />
          </mxGeometry>
        </mxCell>
        <mxCell id="MyfAIEl0TEhj5KPefulC-378" value="Evaluation" style="edgeLabel;html=1;align=center;verticalAlign=middle;resizable=0;points=[];" connectable="0" vertex="1" parent="MyfAIEl0TEhj5KPefulC-374">
          <mxGeometry x="-0.1257" y="-1" relative="1" as="geometry">
            <mxPoint as="offset" />
          </mxGeometry>
        </mxCell>
        <mxCell id="MyfAIEl0TEhj5KPefulC-373" value="" style="endArrow=classic;html=1;rounded=0;strokeWidth=2;strokeColor=#0000CC;" edge="1" parent="MyfAIEl0TEhj5KPefulC-144">
          <mxGeometry width="50" height="50" relative="1" as="geometry">
            <mxPoint x="584" y="296" as="sourcePoint" />
            <mxPoint x="710" y="296" as="targetPoint" />
          </mxGeometry>
        </mxCell>
        <mxCell id="MyfAIEl0TEhj5KPefulC-377" value="Prompt" style="edgeLabel;html=1;align=center;verticalAlign=middle;resizable=0;points=[];" connectable="0" vertex="1" parent="MyfAIEl0TEhj5KPefulC-373">
          <mxGeometry x="-0.1587" y="-1" relative="1" as="geometry">
            <mxPoint as="offset" />
          </mxGeometry>
        </mxCell>
        <mxCell id="MyfAIEl0TEhj5KPefulC-380" value="LLM Call" style="text;html=1;align=center;verticalAlign=middle;resizable=0;points=[];autosize=1;strokeColor=none;fillColor=none;" vertex="1" parent="MyfAIEl0TEhj5KPefulC-144">
          <mxGeometry x="625" y="352" width="70" height="30" as="geometry" />
        </mxCell>
        <mxCell id="MyfAIEl0TEhj5KPefulC-387" value="" style="rounded=0;whiteSpace=wrap;html=1;fillColor=none;" vertex="1" parent="MyfAIEl0TEhj5KPefulC-144">
          <mxGeometry x="702" y="230" width="38" height="20" as="geometry" />
        </mxCell>
        <mxCell id="MyfAIEl0TEhj5KPefulC-389" value="" style="endArrow=classic;html=1;rounded=0;strokeWidth=2;strokeColor=#009900;" edge="1" parent="MyfAIEl0TEhj5KPefulC-144">
          <mxGeometry width="50" height="50" relative="1" as="geometry">
            <mxPoint x="350" y="60" as="sourcePoint" />
            <mxPoint x="350" y="90" as="targetPoint" />
          </mxGeometry>
        </mxCell>
        <mxCell id="MyfAIEl0TEhj5KPefulC-393" value="" style="endArrow=classic;html=1;rounded=0;strokeWidth=2;strokeColor=#009900;" edge="1" parent="MyfAIEl0TEhj5KPefulC-144">
          <mxGeometry width="50" height="50" relative="1" as="geometry">
            <mxPoint x="350" y="160" as="sourcePoint" />
            <mxPoint x="350" y="190" as="targetPoint" />
          </mxGeometry>
        </mxCell>
        <mxCell id="MyfAIEl0TEhj5KPefulC-395" value="" style="endArrow=classic;html=1;rounded=0;strokeWidth=2;strokeColor=#0000CC;" edge="1" parent="MyfAIEl0TEhj5KPefulC-144">
          <mxGeometry width="50" height="50" relative="1" as="geometry">
            <mxPoint x="140" y="220" as="sourcePoint" />
            <mxPoint x="170" y="220" as="targetPoint" />
          </mxGeometry>
        </mxCell>
        <mxCell id="MyfAIEl0TEhj5KPefulC-401" value="" style="endArrow=classic;html=1;rounded=0;strokeWidth=2;strokeColor=#0000CC;" edge="1" parent="MyfAIEl0TEhj5KPefulC-144">
          <mxGeometry width="50" height="50" relative="1" as="geometry">
            <mxPoint x="450" y="310" as="sourcePoint" />
            <mxPoint x="480" y="310" as="targetPoint" />
          </mxGeometry>
        </mxCell>
        <mxCell id="MyfAIEl0TEhj5KPefulC-398" value="" style="endArrow=classic;html=1;rounded=0;strokeWidth=2;strokeColor=#0000CC;" edge="1" parent="MyfAIEl0TEhj5KPefulC-144">
          <mxGeometry width="50" height="50" relative="1" as="geometry">
            <mxPoint x="250" y="220" as="sourcePoint" />
            <mxPoint x="280" y="220" as="targetPoint" />
          </mxGeometry>
        </mxCell>
        <mxCell id="MyfAIEl0TEhj5KPefulC-406" value="" style="endArrow=classic;html=1;rounded=0;strokeWidth=2;strokeColor=#0000CC;" edge="1" parent="MyfAIEl0TEhj5KPefulC-144">
          <mxGeometry width="50" height="50" relative="1" as="geometry">
            <mxPoint x="50" y="140" as="sourcePoint" />
            <mxPoint x="50" y="180" as="targetPoint" />
          </mxGeometry>
        </mxCell>
        <mxCell id="MyfAIEl0TEhj5KPefulC-407" value="" style="endArrow=classic;html=1;rounded=0;strokeWidth=2;strokeColor=#0000CC;" edge="1" parent="MyfAIEl0TEhj5KPefulC-144">
          <mxGeometry width="50" height="50" relative="1" as="geometry">
            <mxPoint x="540" y="310" as="sourcePoint" />
            <mxPoint x="540" y="280" as="targetPoint" />
          </mxGeometry>
        </mxCell>
        <mxCell id="MyfAIEl0TEhj5KPefulC-410" value="" style="endArrow=classic;html=1;rounded=0;strokeWidth=2;strokeColor=#0000CC;" edge="1" parent="MyfAIEl0TEhj5KPefulC-144">
          <mxGeometry width="50" height="50" relative="1" as="geometry">
            <mxPoint x="280" y="350" as="sourcePoint" />
            <mxPoint x="250" y="350" as="targetPoint" />
          </mxGeometry>
        </mxCell>
        <mxCell id="MyfAIEl0TEhj5KPefulC-409" value="" style="endArrow=classic;html=1;rounded=0;strokeWidth=2;strokeColor=#0000CC;" edge="1" parent="MyfAIEl0TEhj5KPefulC-144">
          <mxGeometry width="50" height="50" relative="1" as="geometry">
            <mxPoint x="420" y="40" as="sourcePoint" />
            <mxPoint x="420" y="70" as="targetPoint" />
          </mxGeometry>
        </mxCell>
        <mxCell id="MyfAIEl0TEhj5KPefulC-452" value="" style="endArrow=classic;html=1;rounded=0;strokeWidth=2;strokeColor=#CC6600;" edge="1" parent="MyfAIEl0TEhj5KPefulC-144">
          <mxGeometry width="50" height="50" relative="1" as="geometry">
            <mxPoint x="570" y="100" as="sourcePoint" />
            <mxPoint x="570" y="70" as="targetPoint" />
          </mxGeometry>
        </mxCell>
        <mxCell id="MyfAIEl0TEhj5KPefulC-451" value="" style="endArrow=classic;html=1;rounded=0;strokeWidth=2;strokeColor=#CC6600;" edge="1" parent="MyfAIEl0TEhj5KPefulC-144">
          <mxGeometry width="50" height="50" relative="1" as="geometry">
            <mxPoint x="660" y="160" as="sourcePoint" />
            <mxPoint x="660" y="130" as="targetPoint" />
          </mxGeometry>
        </mxCell>
        <mxCell id="MyfAIEl0TEhj5KPefulC-447" value="" style="endArrow=classic;html=1;rounded=0;strokeWidth=2;strokeColor=#CC6600;" edge="1" parent="MyfAIEl0TEhj5KPefulC-144">
          <mxGeometry width="50" height="50" relative="1" as="geometry">
            <mxPoint x="590" y="150" as="sourcePoint" />
            <mxPoint x="590" y="120" as="targetPoint" />
          </mxGeometry>
        </mxCell>
        <mxCell id="MyfAIEl0TEhj5KPefulC-450" value="" style="endArrow=classic;html=1;rounded=0;strokeWidth=2;strokeColor=#CC6600;" edge="1" parent="MyfAIEl0TEhj5KPefulC-144">
          <mxGeometry width="50" height="50" relative="1" as="geometry">
            <mxPoint x="590" y="230" as="sourcePoint" />
            <mxPoint x="590" y="200" as="targetPoint" />
          </mxGeometry>
        </mxCell>
        <mxCell id="MyfAIEl0TEhj5KPefulC-448" value="" style="endArrow=classic;html=1;rounded=0;strokeWidth=2;strokeColor=#CC6600;" edge="1" parent="MyfAIEl0TEhj5KPefulC-144">
          <mxGeometry width="50" height="50" relative="1" as="geometry">
            <mxPoint x="570.5" y="190" as="sourcePoint" />
            <mxPoint x="570.5" y="160" as="targetPoint" />
          </mxGeometry>
        </mxCell>
        <mxCell id="MyfAIEl0TEhj5KPefulC-449" value="" style="endArrow=classic;html=1;rounded=0;strokeWidth=2;strokeColor=#CC6600;" edge="1" parent="MyfAIEl0TEhj5KPefulC-144">
          <mxGeometry width="50" height="50" relative="1" as="geometry">
            <mxPoint x="470" y="210" as="sourcePoint" />
            <mxPoint x="500" y="210" as="targetPoint" />
          </mxGeometry>
        </mxCell>
        <mxCell id="MyfAIEl0TEhj5KPefulC-453" value="" style="endArrow=classic;html=1;rounded=0;strokeWidth=2;strokeColor=#CC6600;" edge="1" parent="MyfAIEl0TEhj5KPefulC-144">
          <mxGeometry width="50" height="50" relative="1" as="geometry">
            <mxPoint x="380" y="250" as="sourcePoint" />
            <mxPoint x="410" y="250" as="targetPoint" />
          </mxGeometry>
        </mxCell>
        <mxCell id="MyfAIEl0TEhj5KPefulC-454" value="" style="endArrow=classic;html=1;rounded=0;strokeWidth=2;strokeColor=#CC6600;" edge="1" parent="MyfAIEl0TEhj5KPefulC-144">
          <mxGeometry width="50" height="50" relative="1" as="geometry">
            <mxPoint x="360" y="210" as="sourcePoint" />
            <mxPoint x="390" y="210" as="targetPoint" />
          </mxGeometry>
        </mxCell>
        <mxCell id="MyfAIEl0TEhj5KPefulC-417" value="" style="rounded=0;whiteSpace=wrap;html=1;" vertex="1" parent="1">
          <mxGeometry x="329.5" y="500" width="120" height="90" as="geometry" />
        </mxCell>
        <mxCell id="MyfAIEl0TEhj5KPefulC-414" value="" style="rounded=0;whiteSpace=wrap;html=1;" vertex="1" parent="1">
          <mxGeometry x="29.5" y="500" width="120" height="60" as="geometry" />
        </mxCell>
        <mxCell id="MyfAIEl0TEhj5KPefulC-261" value="" style="endArrow=classic;html=1;rounded=0;strokeColor=#009900;strokeWidth=2;" edge="1" parent="1">
          <mxGeometry width="50" height="50" relative="1" as="geometry">
            <mxPoint x="389.5" y="670" as="sourcePoint" />
            <mxPoint x="359.5" y="910" as="targetPoint" />
            <Array as="points">
              <mxPoint x="359.5" y="670" />
            </Array>
          </mxGeometry>
        </mxCell>
        <mxCell id="MyfAIEl0TEhj5KPefulC-248" value="" style="endArrow=none;html=1;rounded=0;exitX=1;exitY=0.5;exitDx=0;exitDy=0;strokeColor=#009900;strokeWidth=2;" edge="1" parent="1" source="MyfAIEl0TEhj5KPefulC-150">
          <mxGeometry width="50" height="50" relative="1" as="geometry">
            <mxPoint x="320" y="330" as="sourcePoint" />
            <mxPoint x="380" y="320" as="targetPoint" />
          </mxGeometry>
        </mxCell>
        <mxCell id="MyfAIEl0TEhj5KPefulC-139" value="Agent One" style="swimlane;whiteSpace=wrap;html=1;container=0;" vertex="1" parent="1">
          <mxGeometry x="20" y="20" width="750" height="420" as="geometry" />
        </mxCell>
        <mxCell id="MyfAIEl0TEhj5KPefulC-392" value="" style="endArrow=classic;html=1;rounded=0;strokeWidth=2;strokeColor=#0000CC;" edge="1" parent="MyfAIEl0TEhj5KPefulC-139">
          <mxGeometry width="50" height="50" relative="1" as="geometry">
            <mxPoint x="80" y="170" as="sourcePoint" />
            <mxPoint x="80" y="200" as="targetPoint" />
          </mxGeometry>
        </mxCell>
        <mxCell id="MyfAIEl0TEhj5KPefulC-445" value="" style="endArrow=classic;html=1;rounded=0;strokeWidth=2;strokeColor=#CC6600;" edge="1" parent="MyfAIEl0TEhj5KPefulC-139">
          <mxGeometry width="50" height="50" relative="1" as="geometry">
            <mxPoint x="460" y="80" as="sourcePoint" />
            <mxPoint x="440" y="80" as="targetPoint" />
          </mxGeometry>
        </mxCell>
        <mxCell id="MyfAIEl0TEhj5KPefulC-394" value="" style="endArrow=classic;html=1;rounded=0;strokeWidth=2;strokeColor=#CC6600;" edge="1" parent="MyfAIEl0TEhj5KPefulC-139">
          <mxGeometry width="50" height="50" relative="1" as="geometry">
            <mxPoint x="260" y="80" as="sourcePoint" />
            <mxPoint x="240" y="80" as="targetPoint" />
          </mxGeometry>
        </mxCell>
        <mxCell id="MyfAIEl0TEhj5KPefulC-443" value="" style="endArrow=classic;html=1;rounded=0;strokeWidth=2;strokeColor=#CC6600;" edge="1" parent="MyfAIEl0TEhj5KPefulC-139">
          <mxGeometry width="50" height="50" relative="1" as="geometry">
            <mxPoint x="480" y="310" as="sourcePoint" />
            <mxPoint x="480" y="280" as="targetPoint" />
          </mxGeometry>
        </mxCell>
        <mxCell id="MyfAIEl0TEhj5KPefulC-189" value="" style="endArrow=classic;html=1;rounded=0;strokeColor=#0000CC;strokeWidth=2;entryX=0;entryY=0.5;entryDx=0;entryDy=0;" edge="1" parent="1" target="MyfAIEl0TEhj5KPefulC-204">
          <mxGeometry width="50" height="50" relative="1" as="geometry">
            <mxPoint x="119.5" y="920" as="sourcePoint" />
            <mxPoint x="299.5" y="900" as="targetPoint" />
            <Array as="points">
              <mxPoint x="119.5" y="900" />
              <mxPoint x="199.5" y="900" />
              <mxPoint x="199.5" y="940" />
            </Array>
          </mxGeometry>
        </mxCell>
        <mxCell id="MyfAIEl0TEhj5KPefulC-210" value="" style="endArrow=classic;html=1;rounded=0;strokeColor=#CC6600;strokeWidth=2;" edge="1" parent="1">
          <mxGeometry width="50" height="50" relative="1" as="geometry">
            <mxPoint x="540" y="400" as="sourcePoint" />
            <mxPoint x="500" y="260" as="targetPoint" />
            <Array as="points">
              <mxPoint x="540" y="400" />
              <mxPoint x="500" y="400" />
            </Array>
          </mxGeometry>
        </mxCell>
        <mxCell id="MyfAIEl0TEhj5KPefulC-188" value="" style="endArrow=classic;html=1;rounded=0;exitX=0.5;exitY=1;exitDx=0;exitDy=0;strokeColor=#000000;strokeWidth=2;" edge="1" parent="1" source="MyfAIEl0TEhj5KPefulC-129">
          <mxGeometry width="50" height="50" relative="1" as="geometry">
            <mxPoint x="89.58272727272724" y="410" as="sourcePoint" />
            <mxPoint x="100" y="500" as="targetPoint" />
          </mxGeometry>
        </mxCell>
        <mxCell id="MyfAIEl0TEhj5KPefulC-198" value="" style="endArrow=classic;html=1;rounded=0;strokeColor=#000000;strokeWidth=2;startArrow=oval;startFill=1;" edge="1" parent="1">
          <mxGeometry width="50" height="50" relative="1" as="geometry">
            <mxPoint x="380" y="320" as="sourcePoint" />
            <mxPoint x="380" y="500" as="targetPoint" />
            <Array as="points">
              <mxPoint x="380" y="320" />
            </Array>
          </mxGeometry>
        </mxCell>
        <mxCell id="MyfAIEl0TEhj5KPefulC-219" value="" style="endArrow=baseDash;html=1;rounded=0;endFill=0;strokeColor=#CC6600;strokeWidth=2;" edge="1" parent="1">
          <mxGeometry width="50" height="50" relative="1" as="geometry">
            <mxPoint x="250" y="410" as="sourcePoint" />
            <mxPoint x="370" y="410" as="targetPoint" />
          </mxGeometry>
        </mxCell>
        <mxCell id="MyfAIEl0TEhj5KPefulC-221" value="Initial Score" style="edgeLabel;html=1;align=center;verticalAlign=middle;resizable=0;points=[];" connectable="0" vertex="1" parent="MyfAIEl0TEhj5KPefulC-219">
          <mxGeometry x="-0.0423" relative="1" as="geometry">
            <mxPoint x="10" as="offset" />
          </mxGeometry>
        </mxCell>
        <mxCell id="MyfAIEl0TEhj5KPefulC-226" value="" style="endArrow=classic;html=1;rounded=0;strokeColor=#CC6600;strokeWidth=2;" edge="1" parent="1">
          <mxGeometry width="50" height="50" relative="1" as="geometry">
            <mxPoint x="520" y="120" as="sourcePoint" />
            <mxPoint x="500" y="200" as="targetPoint" />
            <Array as="points">
              <mxPoint x="500" y="120" />
            </Array>
          </mxGeometry>
        </mxCell>
        <mxCell id="MyfAIEl0TEhj5KPefulC-230" value="" style="shape=or;whiteSpace=wrap;html=1;direction=south;" vertex="1" parent="1">
          <mxGeometry x="90" y="440" width="20" height="10" as="geometry" />
        </mxCell>
        <mxCell id="MyfAIEl0TEhj5KPefulC-232" value="" style="shape=or;whiteSpace=wrap;html=1;direction=south;" vertex="1" parent="1">
          <mxGeometry x="370" y="440" width="20" height="10" as="geometry" />
        </mxCell>
        <mxCell id="MyfAIEl0TEhj5KPefulC-236" value="" style="endArrow=none;html=1;rounded=0;endFill=0;strokeWidth=2;" edge="1" parent="1" target="MyfAIEl0TEhj5KPefulC-231">
          <mxGeometry width="50" height="50" relative="1" as="geometry">
            <mxPoint x="249" y="500" as="sourcePoint" />
            <mxPoint x="250" y="410" as="targetPoint" />
          </mxGeometry>
        </mxCell>
        <mxCell id="MyfAIEl0TEhj5KPefulC-241" value="" style="endArrow=classic;html=1;rounded=0;entryX=0;entryY=0.5;entryDx=0;entryDy=0;startArrow=baseDash;startFill=0;strokeColor=#0000CC;strokeWidth=2;" edge="1" parent="1" target="MyfAIEl0TEhj5KPefulC-150">
          <mxGeometry width="50" height="50" relative="1" as="geometry">
            <mxPoint x="210" y="320" as="sourcePoint" />
            <mxPoint x="500" y="240" as="targetPoint" />
          </mxGeometry>
        </mxCell>
        <mxCell id="MyfAIEl0TEhj5KPefulC-247" value="" style="endArrow=oval;html=1;rounded=0;startArrow=none;startFill=0;endFill=1;strokeWidth=2;" edge="1" parent="1">
          <mxGeometry width="50" height="50" relative="1" as="geometry">
            <mxPoint x="540" y="430" as="sourcePoint" />
            <mxPoint x="540" y="400" as="targetPoint" />
          </mxGeometry>
        </mxCell>
        <mxCell id="MyfAIEl0TEhj5KPefulC-252" value="" style="endArrow=classic;html=1;rounded=0;entryX=0.5;entryY=0;entryDx=0;entryDy=0;strokeWidth=2;" edge="1" parent="1" target="MyfAIEl0TEhj5KPefulC-228">
          <mxGeometry width="50" height="50" relative="1" as="geometry">
            <mxPoint x="89.5" y="620" as="sourcePoint" />
            <mxPoint x="159.5" y="560" as="targetPoint" />
            <Array as="points">
              <mxPoint x="90" y="560" />
              <mxPoint x="89.5" y="620" />
            </Array>
          </mxGeometry>
        </mxCell>
        <mxCell id="MyfAIEl0TEhj5KPefulC-254" value="" style="endArrow=classic;html=1;rounded=0;entryX=0.5;entryY=1;entryDx=0;entryDy=0;strokeColor=#0000CC;strokeWidth=2;startArrow=oval;startFill=1;" edge="1" parent="1" target="MyfAIEl0TEhj5KPefulC-190">
          <mxGeometry width="50" height="50" relative="1" as="geometry">
            <mxPoint x="209.5" y="860" as="sourcePoint" />
            <mxPoint x="329.5" y="640" as="targetPoint" />
          </mxGeometry>
        </mxCell>
        <mxCell id="MyfAIEl0TEhj5KPefulC-278" value="" style="endArrow=classic;html=1;rounded=0;strokeWidth=2;startArrow=none;startFill=0;exitX=0.5;exitY=1;exitDx=0;exitDy=0;" edge="1" parent="1" source="MyfAIEl0TEhj5KPefulC-429">
          <mxGeometry width="50" height="50" relative="1" as="geometry">
            <mxPoint x="689.5" y="620" as="sourcePoint" />
            <mxPoint x="689.5" y="670" as="targetPoint" />
          </mxGeometry>
        </mxCell>
        <mxCell id="MyfAIEl0TEhj5KPefulC-279" value="" style="endArrow=baseDash;html=1;rounded=0;strokeWidth=2;strokeColor=#CC6600;startArrow=oval;startFill=1;endFill=0;" edge="1" parent="1">
          <mxGeometry width="50" height="50" relative="1" as="geometry">
            <mxPoint x="359.5" y="850" as="sourcePoint" />
            <mxPoint x="539.5" y="850" as="targetPoint" />
            <Array as="points" />
          </mxGeometry>
        </mxCell>
        <mxCell id="MyfAIEl0TEhj5KPefulC-284" value="Initial Score" style="edgeLabel;html=1;align=center;verticalAlign=middle;resizable=0;points=[];" connectable="0" vertex="1" parent="MyfAIEl0TEhj5KPefulC-279">
          <mxGeometry x="-0.0556" y="-1" relative="1" as="geometry">
            <mxPoint as="offset" />
          </mxGeometry>
        </mxCell>
        <mxCell id="MyfAIEl0TEhj5KPefulC-304" value="" style="endArrow=classic;html=1;rounded=0;strokeWidth=2;strokeColor=#009900;" edge="1" parent="1">
          <mxGeometry width="50" height="50" relative="1" as="geometry">
            <mxPoint x="200" y="320" as="sourcePoint" />
            <mxPoint x="200" y="290" as="targetPoint" />
          </mxGeometry>
        </mxCell>
        <mxCell id="MyfAIEl0TEhj5KPefulC-155" value="Confidence Scores" style="shape=table;startSize=20;container=1;collapsible=0;childLayout=tableLayout;strokeColor=default;fontSize=12;swimlaneLine=1;movable=1;resizable=1;rotatable=1;deletable=1;editable=1;locked=0;connectable=1;" vertex="1" parent="1">
          <mxGeometry x="520" y="60" width="160" height="80" as="geometry" />
        </mxCell>
        <mxCell id="MyfAIEl0TEhj5KPefulC-156" value="" style="shape=tableRow;horizontal=0;startSize=0;swimlaneHead=0;swimlaneBody=0;strokeColor=inherit;top=0;left=0;bottom=0;right=0;collapsible=0;dropTarget=0;fillColor=none;points=[[0,0.5],[1,0.5]];portConstraint=eastwest;fontSize=16;" vertex="1" parent="MyfAIEl0TEhj5KPefulC-155">
          <mxGeometry y="20" width="160" height="20" as="geometry" />
        </mxCell>
        <mxCell id="MyfAIEl0TEhj5KPefulC-157" value="Prompt 1" style="shape=partialRectangle;html=1;whiteSpace=wrap;connectable=0;strokeColor=inherit;overflow=hidden;fillColor=none;top=0;left=0;bottom=0;right=0;pointerEvents=1;fontSize=12;" vertex="1" parent="MyfAIEl0TEhj5KPefulC-156">
          <mxGeometry width="110" height="20" as="geometry">
            <mxRectangle width="110" height="20" as="alternateBounds" />
          </mxGeometry>
        </mxCell>
        <mxCell id="MyfAIEl0TEhj5KPefulC-158" value="4.5" style="shape=partialRectangle;html=1;whiteSpace=wrap;connectable=0;strokeColor=inherit;overflow=hidden;fillColor=none;top=0;left=0;bottom=0;right=0;pointerEvents=1;fontSize=12;" vertex="1" parent="MyfAIEl0TEhj5KPefulC-156">
          <mxGeometry x="110" width="50" height="20" as="geometry">
            <mxRectangle width="50" height="20" as="alternateBounds" />
          </mxGeometry>
        </mxCell>
        <mxCell id="MyfAIEl0TEhj5KPefulC-160" value="" style="shape=tableRow;horizontal=0;startSize=0;swimlaneHead=0;swimlaneBody=0;strokeColor=inherit;top=0;left=0;bottom=0;right=0;collapsible=0;dropTarget=0;fillColor=none;points=[[0,0.5],[1,0.5]];portConstraint=eastwest;fontSize=16;" vertex="1" parent="MyfAIEl0TEhj5KPefulC-155">
          <mxGeometry y="40" width="160" height="20" as="geometry" />
        </mxCell>
        <mxCell id="MyfAIEl0TEhj5KPefulC-161" value="Prompt 2" style="shape=partialRectangle;html=1;whiteSpace=wrap;connectable=0;strokeColor=inherit;overflow=hidden;fillColor=none;top=0;left=0;bottom=0;right=0;pointerEvents=1;fontSize=12;" vertex="1" parent="MyfAIEl0TEhj5KPefulC-160">
          <mxGeometry width="110" height="20" as="geometry">
            <mxRectangle width="110" height="20" as="alternateBounds" />
          </mxGeometry>
        </mxCell>
        <mxCell id="MyfAIEl0TEhj5KPefulC-162" value="5.3" style="shape=partialRectangle;html=1;whiteSpace=wrap;connectable=0;strokeColor=inherit;overflow=hidden;fillColor=none;top=0;left=0;bottom=0;right=0;pointerEvents=1;fontSize=12;" vertex="1" parent="MyfAIEl0TEhj5KPefulC-160">
          <mxGeometry x="110" width="50" height="20" as="geometry">
            <mxRectangle width="50" height="20" as="alternateBounds" />
          </mxGeometry>
        </mxCell>
        <mxCell id="MyfAIEl0TEhj5KPefulC-382" style="shape=tableRow;horizontal=0;startSize=0;swimlaneHead=0;swimlaneBody=0;strokeColor=inherit;top=0;left=0;bottom=0;right=0;collapsible=0;dropTarget=0;fillColor=none;points=[[0,0.5],[1,0.5]];portConstraint=eastwest;fontSize=16;" vertex="1" parent="MyfAIEl0TEhj5KPefulC-155">
          <mxGeometry y="60" width="160" height="20" as="geometry" />
        </mxCell>
        <mxCell id="MyfAIEl0TEhj5KPefulC-383" value="Prompt 3" style="shape=partialRectangle;html=1;whiteSpace=wrap;connectable=0;strokeColor=#006EAF;overflow=hidden;fillColor=#1ba1e2;top=0;left=0;bottom=0;right=0;pointerEvents=1;fontSize=12;fontColor=#ffffff;" vertex="1" parent="MyfAIEl0TEhj5KPefulC-382">
          <mxGeometry width="110" height="20" as="geometry">
            <mxRectangle width="110" height="20" as="alternateBounds" />
          </mxGeometry>
        </mxCell>
        <mxCell id="MyfAIEl0TEhj5KPefulC-384" value="2.6" style="shape=partialRectangle;html=1;whiteSpace=wrap;connectable=0;strokeColor=#b46504;overflow=hidden;fillColor=#fad7ac;top=0;left=0;bottom=0;right=0;pointerEvents=1;fontSize=12;" vertex="1" parent="MyfAIEl0TEhj5KPefulC-382">
          <mxGeometry x="110" width="50" height="20" as="geometry">
            <mxRectangle width="50" height="20" as="alternateBounds" />
          </mxGeometry>
        </mxCell>
        <mxCell id="MyfAIEl0TEhj5KPefulC-125" value="" style="shape=document;whiteSpace=wrap;html=1;boundedLbl=1;" vertex="1" parent="1">
          <mxGeometry x="30" y="50" width="120" height="80" as="geometry" />
        </mxCell>
        <mxCell id="MyfAIEl0TEhj5KPefulC-126" value="" style="shape=document;whiteSpace=wrap;html=1;boundedLbl=1;fillColor=#1ba1e2;strokeColor=#006EAF;fontColor=#ffffff;" vertex="1" parent="1">
          <mxGeometry x="40" y="60" width="120" height="80" as="geometry" />
        </mxCell>
        <mxCell id="MyfAIEl0TEhj5KPefulC-127" value="" style="shape=document;whiteSpace=wrap;html=1;boundedLbl=1;" vertex="1" parent="1">
          <mxGeometry x="50" y="70" width="120" height="80" as="geometry" />
        </mxCell>
        <mxCell id="MyfAIEl0TEhj5KPefulC-128" value="Prompts" style="shape=document;whiteSpace=wrap;html=1;boundedLbl=1;" vertex="1" parent="1">
          <mxGeometry x="60" y="80" width="120" height="80" as="geometry" />
        </mxCell>
        <mxCell id="MyfAIEl0TEhj5KPefulC-129" value="Start Socialising" style="rounded=0;whiteSpace=wrap;html=1;fillColor=#1ba1e2;strokeColor=#006EAF;fontColor=#ffffff;" vertex="1" parent="1">
          <mxGeometry x="40" y="350" width="120" height="60" as="geometry" />
        </mxCell>
        <mxCell id="MyfAIEl0TEhj5KPefulC-150" value="Evaluate Prompt" style="rounded=1;whiteSpace=wrap;html=1;fillColor=#60a917;strokeColor=#2D7600;fontColor=#ffffff;" vertex="1" parent="1">
          <mxGeometry x="230" y="290" width="120" height="60" as="geometry" />
        </mxCell>
        <mxCell id="MyfAIEl0TEhj5KPefulC-154" value="Update Prompt" style="rounded=1;whiteSpace=wrap;html=1;fillColor=#1ba1e2;strokeColor=#006EAF;fontColor=#ffffff;" vertex="1" parent="1">
          <mxGeometry x="150" y="200" width="120" height="60" as="geometry" />
        </mxCell>
        <mxCell id="MyfAIEl0TEhj5KPefulC-172" value="" style="endArrow=classic;html=1;rounded=0;exitX=0.5;exitY=0;exitDx=0;exitDy=0;strokeColor=#0000CC;strokeWidth=2;" edge="1" parent="1" source="MyfAIEl0TEhj5KPefulC-154">
          <mxGeometry width="50" height="50" relative="1" as="geometry">
            <mxPoint x="250" y="190" as="sourcePoint" />
            <mxPoint x="180" y="130" as="targetPoint" />
            <Array as="points">
              <mxPoint x="210" y="130" />
              <mxPoint x="200" y="130" />
            </Array>
          </mxGeometry>
        </mxCell>
        <mxCell id="MyfAIEl0TEhj5KPefulC-251" value="Updated&lt;div&gt;Prompt&lt;/div&gt;" style="edgeLabel;html=1;align=center;verticalAlign=middle;resizable=0;points=[];" connectable="0" vertex="1" parent="MyfAIEl0TEhj5KPefulC-172">
          <mxGeometry x="-0.1855" y="-2" relative="1" as="geometry">
            <mxPoint as="offset" />
          </mxGeometry>
        </mxCell>
        <mxCell id="MyfAIEl0TEhj5KPefulC-173" value="Find lowest Confidence Score" style="rounded=0;whiteSpace=wrap;html=1;fillColor=#fad7ac;strokeColor=#b46504;" vertex="1" parent="1">
          <mxGeometry x="290" y="70" width="120" height="60" as="geometry" />
        </mxCell>
        <mxCell id="MyfAIEl0TEhj5KPefulC-186" value="" style="endArrow=classic;html=1;rounded=0;exitX=0;exitY=0.5;exitDx=0;exitDy=0;strokeColor=#CC6600;strokeWidth=2;" edge="1" parent="1" source="MyfAIEl0TEhj5KPefulC-173">
          <mxGeometry width="50" height="50" relative="1" as="geometry">
            <mxPoint x="220" y="160" as="sourcePoint" />
            <mxPoint x="180" y="100" as="targetPoint" />
          </mxGeometry>
        </mxCell>
        <mxCell id="MyfAIEl0TEhj5KPefulC-171" value="" style="endArrow=classic;html=1;rounded=0;strokeWidth=2;strokeColor=#0000CC;" edge="1" parent="1">
          <mxGeometry width="50" height="50" relative="1" as="geometry">
            <mxPoint x="100" y="157" as="sourcePoint" />
            <mxPoint x="100" y="350" as="targetPoint" />
          </mxGeometry>
        </mxCell>
        <mxCell id="MyfAIEl0TEhj5KPefulC-253" value="Initial&amp;nbsp;&lt;div&gt;Prompt&lt;/div&gt;" style="edgeLabel;html=1;align=center;verticalAlign=middle;resizable=0;points=[];" connectable="0" vertex="1" parent="MyfAIEl0TEhj5KPefulC-171">
          <mxGeometry x="0.0239" y="-1" relative="1" as="geometry">
            <mxPoint as="offset" />
          </mxGeometry>
        </mxCell>
        <mxCell id="MyfAIEl0TEhj5KPefulC-193" value="Calculate&amp;nbsp;&lt;div&gt;New Score&lt;/div&gt;" style="rounded=0;whiteSpace=wrap;html=1;fillColor=#fad7ac;strokeColor=#b46504;" vertex="1" parent="1">
          <mxGeometry x="410" y="200" width="120" height="60" as="geometry" />
        </mxCell>
        <mxCell id="MyfAIEl0TEhj5KPefulC-169" value="" style="endArrow=classic;html=1;rounded=0;strokeColor=#009900;strokeWidth=2;" edge="1" parent="1">
          <mxGeometry width="50" height="50" relative="1" as="geometry">
            <mxPoint x="250" y="410" as="sourcePoint" />
            <mxPoint x="200" y="260" as="targetPoint" />
            <Array as="points">
              <mxPoint x="200" y="410" />
            </Array>
          </mxGeometry>
        </mxCell>
        <mxCell id="MyfAIEl0TEhj5KPefulC-250" value="Initial&lt;div&gt;Evaluation&lt;/div&gt;" style="edgeLabel;html=1;align=center;verticalAlign=middle;resizable=0;points=[];" connectable="0" vertex="1" parent="MyfAIEl0TEhj5KPefulC-169">
          <mxGeometry x="-0.0382" y="2" relative="1" as="geometry">
            <mxPoint as="offset" />
          </mxGeometry>
        </mxCell>
        <mxCell id="MyfAIEl0TEhj5KPefulC-201" value="" style="endArrow=classic;html=1;rounded=0;strokeColor=#0000CC;strokeWidth=2;" edge="1" parent="1">
          <mxGeometry width="50" height="50" relative="1" as="geometry">
            <mxPoint x="250" y="410" as="sourcePoint" />
            <mxPoint x="310" y="350" as="targetPoint" />
            <Array as="points">
              <mxPoint x="250" y="380" />
              <mxPoint x="310" y="380" />
            </Array>
          </mxGeometry>
        </mxCell>
        <mxCell id="MyfAIEl0TEhj5KPefulC-257" value="Initial&lt;div&gt;Prompt&lt;/div&gt;" style="edgeLabel;html=1;align=center;verticalAlign=middle;resizable=0;points=[];" connectable="0" vertex="1" parent="MyfAIEl0TEhj5KPefulC-201">
          <mxGeometry x="-0.0255" y="1" relative="1" as="geometry">
            <mxPoint as="offset" />
          </mxGeometry>
        </mxCell>
        <mxCell id="MyfAIEl0TEhj5KPefulC-209" value="Evaluate&lt;div&gt;Updated Prompt&lt;/div&gt;" style="rounded=1;whiteSpace=wrap;html=1;fillColor=#60a917;strokeColor=#2D7600;fontColor=#ffffff;" vertex="1" parent="1">
          <mxGeometry x="545" y="290" width="120" height="60" as="geometry" />
        </mxCell>
        <mxCell id="MyfAIEl0TEhj5KPefulC-217" value="" style="endArrow=classic;html=1;rounded=0;exitX=1;exitY=0.5;exitDx=0;exitDy=0;strokeWidth=2;" edge="1" parent="1" source="MyfAIEl0TEhj5KPefulC-209">
          <mxGeometry width="50" height="50" relative="1" as="geometry">
            <mxPoint x="700" y="350" as="sourcePoint" />
            <mxPoint x="690" y="500" as="targetPoint" />
            <Array as="points">
              <mxPoint x="690" y="320" />
            </Array>
          </mxGeometry>
        </mxCell>
        <mxCell id="MyfAIEl0TEhj5KPefulC-220" value="" style="endArrow=classic;html=1;rounded=0;startArrow=baseDash;startFill=0;strokeColor=#CC6600;strokeWidth=2;" edge="1" parent="1">
          <mxGeometry width="50" height="50" relative="1" as="geometry">
            <mxPoint x="390" y="410" as="sourcePoint" />
            <mxPoint x="440" y="260" as="targetPoint" />
            <Array as="points">
              <mxPoint x="440" y="410" />
            </Array>
          </mxGeometry>
        </mxCell>
        <mxCell id="MyfAIEl0TEhj5KPefulC-225" value="" style="endArrow=classic;html=1;rounded=0;exitX=0.75;exitY=0;exitDx=0;exitDy=0;strokeColor=#CC6600;strokeWidth=2;" edge="1" parent="1" source="MyfAIEl0TEhj5KPefulC-154">
          <mxGeometry width="50" height="50" relative="1" as="geometry">
            <mxPoint x="240" y="190" as="sourcePoint" />
            <mxPoint x="440" y="200" as="targetPoint" />
            <Array as="points">
              <mxPoint x="240" y="170" />
              <mxPoint x="440" y="170" />
            </Array>
          </mxGeometry>
        </mxCell>
        <mxCell id="MyfAIEl0TEhj5KPefulC-249" value="Updated Score" style="edgeLabel;html=1;align=center;verticalAlign=middle;resizable=0;points=[];" connectable="0" vertex="1" parent="MyfAIEl0TEhj5KPefulC-225">
          <mxGeometry x="-0.1776" y="3" relative="1" as="geometry">
            <mxPoint as="offset" />
          </mxGeometry>
        </mxCell>
        <mxCell id="MyfAIEl0TEhj5KPefulC-227" value="" style="endArrow=classic;html=1;rounded=0;strokeColor=#0000CC;strokeWidth=2;" edge="1" parent="1">
          <mxGeometry width="50" height="50" relative="1" as="geometry">
            <mxPoint x="130" y="142" as="sourcePoint" />
            <mxPoint x="150" y="230" as="targetPoint" />
            <Array as="points">
              <mxPoint x="130" y="230" />
            </Array>
          </mxGeometry>
        </mxCell>
        <mxCell id="MyfAIEl0TEhj5KPefulC-231" value="" style="shape=or;whiteSpace=wrap;html=1;direction=north;" vertex="1" parent="1">
          <mxGeometry x="240" y="430" width="20" height="10" as="geometry" />
        </mxCell>
        <mxCell id="MyfAIEl0TEhj5KPefulC-238" value="" style="endArrow=classic;html=1;rounded=0;exitX=1;exitY=0.5;exitDx=0;exitDy=0;strokeColor=#CC6600;strokeWidth=2;" edge="1" parent="1" source="MyfAIEl0TEhj5KPefulC-193">
          <mxGeometry width="50" height="50" relative="1" as="geometry">
            <mxPoint x="580" y="230" as="sourcePoint" />
            <mxPoint x="660" y="140" as="targetPoint" />
            <Array as="points">
              <mxPoint x="660" y="230" />
            </Array>
          </mxGeometry>
        </mxCell>
        <mxCell id="MyfAIEl0TEhj5KPefulC-298" value="New Score" style="edgeLabel;html=1;align=center;verticalAlign=middle;resizable=0;points=[];" connectable="0" vertex="1" parent="MyfAIEl0TEhj5KPefulC-238">
          <mxGeometry x="-0.2" y="-2" relative="1" as="geometry">
            <mxPoint x="-1" as="offset" />
          </mxGeometry>
        </mxCell>
        <mxCell id="MyfAIEl0TEhj5KPefulC-240" value="" style="endArrow=baseDash;html=1;rounded=0;startArrow=oval;startFill=1;endFill=0;strokeColor=#0000CC;strokeWidth=2;" edge="1" parent="1">
          <mxGeometry width="50" height="50" relative="1" as="geometry">
            <mxPoint x="130" y="230" as="sourcePoint" />
            <mxPoint x="190" y="320" as="targetPoint" />
            <Array as="points">
              <mxPoint x="130" y="320" />
            </Array>
          </mxGeometry>
        </mxCell>
        <mxCell id="MyfAIEl0TEhj5KPefulC-292" value="" style="shape=image;html=1;verticalAlign=top;verticalLabelPosition=bottom;labelBackgroundColor=#ffffff;imageAspect=0;aspect=fixed;image=https://cdn0.iconfinder.com/data/icons/phosphor-duotone-vol-3/256/robot-duotone-128.png;imageBackground=default;" vertex="1" parent="1">
          <mxGeometry x="135" y="181" width="36" height="36" as="geometry" />
        </mxCell>
        <mxCell id="MyfAIEl0TEhj5KPefulC-293" value="" style="shape=image;html=1;verticalAlign=top;verticalLabelPosition=bottom;labelBackgroundColor=#ffffff;imageAspect=0;aspect=fixed;image=https://cdn0.iconfinder.com/data/icons/phosphor-duotone-vol-3/256/robot-duotone-128.png;imageBackground=default;" vertex="1" parent="1">
          <mxGeometry x="214" y="272" width="36" height="36" as="geometry" />
        </mxCell>
        <mxCell id="MyfAIEl0TEhj5KPefulC-300" value="" style="shape=or;whiteSpace=wrap;html=1;direction=north;" vertex="1" parent="1">
          <mxGeometry x="530" y="430" width="20" height="10" as="geometry" />
        </mxCell>
        <mxCell id="MyfAIEl0TEhj5KPefulC-308" value="" style="endArrow=classic;html=1;rounded=0;strokeWidth=2;strokeColor=#CC6600;" edge="1" parent="1">
          <mxGeometry width="50" height="50" relative="1" as="geometry">
            <mxPoint x="260" y="410" as="sourcePoint" />
            <mxPoint x="280" y="410" as="targetPoint" />
          </mxGeometry>
        </mxCell>
        <mxCell id="MyfAIEl0TEhj5KPefulC-307" value="" style="endArrow=classic;html=1;rounded=0;strokeWidth=2;strokeColor=#009900;" edge="1" parent="1">
          <mxGeometry width="50" height="50" relative="1" as="geometry">
            <mxPoint x="240" y="410" as="sourcePoint" />
            <mxPoint x="220" y="410" as="targetPoint" />
          </mxGeometry>
        </mxCell>
        <mxCell id="MyfAIEl0TEhj5KPefulC-294" value="" style="shape=image;html=1;verticalAlign=top;verticalLabelPosition=bottom;labelBackgroundColor=#ffffff;imageAspect=0;aspect=fixed;image=https://cdn0.iconfinder.com/data/icons/phosphor-duotone-vol-3/256/robot-duotone-128.png;imageBackground=default;" vertex="1" parent="1">
          <mxGeometry x="527" y="270" width="36" height="36" as="geometry" />
        </mxCell>
        <mxCell id="MyfAIEl0TEhj5KPefulC-385" value="" style="rounded=0;whiteSpace=wrap;html=1;fillColor=none;" vertex="1" parent="1">
          <mxGeometry x="630" y="120" width="50" height="20" as="geometry" />
        </mxCell>
        <mxCell id="MyfAIEl0TEhj5KPefulC-386" value="" style="rounded=0;whiteSpace=wrap;html=1;fillColor=none;" vertex="1" parent="1">
          <mxGeometry x="520" y="120" width="110" height="20" as="geometry" />
        </mxCell>
        <mxCell id="MyfAIEl0TEhj5KPefulC-388" value="" style="endArrow=classic;html=1;rounded=0;strokeWidth=2;strokeColor=#009900;" edge="1" parent="1">
          <mxGeometry width="50" height="50" relative="1" as="geometry">
            <mxPoint x="350" y="320" as="sourcePoint" />
            <mxPoint x="370" y="319.66999999999996" as="targetPoint" />
          </mxGeometry>
        </mxCell>
        <mxCell id="MyfAIEl0TEhj5KPefulC-390" value="" style="endArrow=classic;html=1;rounded=0;strokeWidth=2;strokeColor=#0000CC;" edge="1" parent="1">
          <mxGeometry width="50" height="50" relative="1" as="geometry">
            <mxPoint x="140" y="320" as="sourcePoint" />
            <mxPoint x="170" y="320" as="targetPoint" />
          </mxGeometry>
        </mxCell>
        <mxCell id="MyfAIEl0TEhj5KPefulC-391" value="" style="endArrow=classic;html=1;rounded=0;strokeWidth=2;strokeColor=#0000CC;" edge="1" parent="1">
          <mxGeometry width="50" height="50" relative="1" as="geometry">
            <mxPoint x="290" y="230" as="sourcePoint" />
            <mxPoint x="320" y="230" as="targetPoint" />
          </mxGeometry>
        </mxCell>
        <mxCell id="MyfAIEl0TEhj5KPefulC-396" value="" style="endArrow=classic;html=1;rounded=0;strokeWidth=2;strokeColor=#0000CC;" edge="1" parent="1">
          <mxGeometry width="50" height="50" relative="1" as="geometry">
            <mxPoint x="560" y="400" as="sourcePoint" />
            <mxPoint x="590" y="400" as="targetPoint" />
          </mxGeometry>
        </mxCell>
        <mxCell id="MyfAIEl0TEhj5KPefulC-397" value="" style="endArrow=classic;html=1;rounded=0;strokeWidth=2;strokeColor=#0000CC;" edge="1" parent="1">
          <mxGeometry width="50" height="50" relative="1" as="geometry">
            <mxPoint x="380" y="280" as="sourcePoint" />
            <mxPoint x="380" y="300" as="targetPoint" />
          </mxGeometry>
        </mxCell>
        <mxCell id="MyfAIEl0TEhj5KPefulC-399" value="" style="endArrow=classic;html=1;rounded=0;strokeWidth=2;strokeColor=#0000CC;" edge="1" parent="1">
          <mxGeometry width="50" height="50" relative="1" as="geometry">
            <mxPoint x="309.5" y="700" as="sourcePoint" />
            <mxPoint x="279.5" y="700" as="targetPoint" />
          </mxGeometry>
        </mxCell>
        <mxCell id="MyfAIEl0TEhj5KPefulC-400" value="" style="endArrow=classic;html=1;rounded=0;strokeWidth=2;strokeColor=#0000CC;" edge="1" parent="1">
          <mxGeometry width="50" height="50" relative="1" as="geometry">
            <mxPoint x="119.5" y="900" as="sourcePoint" />
            <mxPoint x="149.5" y="900" as="targetPoint" />
          </mxGeometry>
        </mxCell>
        <mxCell id="MyfAIEl0TEhj5KPefulC-402" value="" style="endArrow=classic;html=1;rounded=0;strokeWidth=2;strokeColor=#0000CC;" edge="1" parent="1">
          <mxGeometry width="50" height="50" relative="1" as="geometry">
            <mxPoint x="549.5" y="790" as="sourcePoint" />
            <mxPoint x="549.5" y="760" as="targetPoint" />
          </mxGeometry>
        </mxCell>
        <mxCell id="MyfAIEl0TEhj5KPefulC-403" value="" style="endArrow=classic;html=1;rounded=0;strokeWidth=2;strokeColor=#0000CC;" edge="1" parent="1">
          <mxGeometry width="50" height="50" relative="1" as="geometry">
            <mxPoint x="199.5" y="900" as="sourcePoint" />
            <mxPoint x="199.5" y="930" as="targetPoint" />
          </mxGeometry>
        </mxCell>
        <mxCell id="MyfAIEl0TEhj5KPefulC-404" value="" style="endArrow=classic;html=1;rounded=0;strokeWidth=2;strokeColor=#0000CC;" edge="1" parent="1">
          <mxGeometry width="50" height="50" relative="1" as="geometry">
            <mxPoint x="216.5" y="940" as="sourcePoint" />
            <mxPoint x="246.5" y="940" as="targetPoint" />
          </mxGeometry>
        </mxCell>
        <mxCell id="MyfAIEl0TEhj5KPefulC-405" value="" style="endArrow=classic;html=1;rounded=0;strokeWidth=2;strokeColor=#009900;" edge="1" parent="1">
          <mxGeometry width="50" height="50" relative="1" as="geometry">
            <mxPoint x="489.5" y="750" as="sourcePoint" />
            <mxPoint x="489.5" y="720" as="targetPoint" />
          </mxGeometry>
        </mxCell>
        <mxCell id="MyfAIEl0TEhj5KPefulC-408" value="" style="endArrow=classic;html=1;rounded=0;strokeWidth=2;strokeColor=#0000CC;" edge="1" parent="1">
          <mxGeometry width="50" height="50" relative="1" as="geometry">
            <mxPoint x="329.5" y="820" as="sourcePoint" />
            <mxPoint x="329.5" y="790" as="targetPoint" />
          </mxGeometry>
        </mxCell>
        <mxCell id="MyfAIEl0TEhj5KPefulC-413" value="Initial Prompt" style="rounded=0;whiteSpace=wrap;html=1;fillColor=#1ba1e2;fontColor=#ffffff;strokeColor=#006EAF;" vertex="1" parent="1">
          <mxGeometry x="39.5" y="514" width="100" height="30" as="geometry" />
        </mxCell>
        <mxCell id="MyfAIEl0TEhj5KPefulC-411" value="" style="shape=message;html=1;html=1;outlineConnect=0;labelPosition=center;verticalLabelPosition=bottom;align=center;verticalAlign=top;fillColor=#E6E6E6;" vertex="1" parent="1">
          <mxGeometry x="24.5" y="490" width="30" height="20" as="geometry" />
        </mxCell>
        <mxCell id="MyfAIEl0TEhj5KPefulC-176" value="Initial Evaluation" style="html=1;whiteSpace=wrap;fillColor=#60a917;strokeColor=#2D7600;fontColor=#ffffff;" vertex="1" parent="1">
          <mxGeometry x="339.5" y="550" width="100" height="30" as="geometry" />
        </mxCell>
        <mxCell id="MyfAIEl0TEhj5KPefulC-421" value="" style="shape=message;html=1;html=1;outlineConnect=0;labelPosition=center;verticalLabelPosition=bottom;align=center;verticalAlign=top;fillColor=#E6E6E6;" vertex="1" parent="1">
          <mxGeometry x="324.5" y="490" width="30" height="20" as="geometry" />
        </mxCell>
        <mxCell id="MyfAIEl0TEhj5KPefulC-422" value="Updated Prompt" style="html=1;whiteSpace=wrap;fillColor=#1ba1e2;strokeColor=#006EAF;fontColor=#ffffff;" vertex="1" parent="1">
          <mxGeometry x="339.5" y="514" width="100" height="30" as="geometry" />
        </mxCell>
        <mxCell id="MyfAIEl0TEhj5KPefulC-423" value="" style="group" connectable="0" vertex="1" parent="1">
          <mxGeometry x="179.5" y="500" width="125" height="100" as="geometry" />
        </mxCell>
        <mxCell id="MyfAIEl0TEhj5KPefulC-415" value="" style="rounded=0;whiteSpace=wrap;html=1;" vertex="1" parent="MyfAIEl0TEhj5KPefulC-423">
          <mxGeometry width="120" height="90" as="geometry" />
        </mxCell>
        <mxCell id="MyfAIEl0TEhj5KPefulC-153" value="Initial Evaluation" style="html=1;whiteSpace=wrap;fillColor=#60a917;strokeColor=#2D7600;fontColor=#ffffff;" vertex="1" parent="MyfAIEl0TEhj5KPefulC-423">
          <mxGeometry x="10" y="10" width="100" height="30" as="geometry" />
        </mxCell>
        <mxCell id="MyfAIEl0TEhj5KPefulC-200" value="Initial Prompt" style="html=1;whiteSpace=wrap;fillColor=#1ba1e2;strokeColor=#006EAF;fontColor=#ffffff;" vertex="1" parent="MyfAIEl0TEhj5KPefulC-423">
          <mxGeometry x="10" y="44.5" width="100" height="30" as="geometry" />
        </mxCell>
        <mxCell id="MyfAIEl0TEhj5KPefulC-419" value="" style="shape=message;html=1;html=1;outlineConnect=0;labelPosition=center;verticalLabelPosition=bottom;align=center;verticalAlign=top;fillColor=#E6E6E6;" vertex="1" parent="MyfAIEl0TEhj5KPefulC-423">
          <mxGeometry x="95" y="80" width="30" height="20" as="geometry" />
        </mxCell>
        <mxCell id="MyfAIEl0TEhj5KPefulC-424" value="" style="group" connectable="0" vertex="1" parent="1">
          <mxGeometry x="479.5" y="500" width="125" height="100" as="geometry" />
        </mxCell>
        <mxCell id="MyfAIEl0TEhj5KPefulC-425" value="" style="rounded=0;whiteSpace=wrap;html=1;" vertex="1" parent="MyfAIEl0TEhj5KPefulC-424">
          <mxGeometry width="120" height="90" as="geometry" />
        </mxCell>
        <mxCell id="MyfAIEl0TEhj5KPefulC-426" value="Updated Evaluation" style="html=1;whiteSpace=wrap;fillColor=#60a917;strokeColor=#2D7600;fontColor=#ffffff;" vertex="1" parent="MyfAIEl0TEhj5KPefulC-424">
          <mxGeometry x="10" y="10" width="100" height="30" as="geometry" />
        </mxCell>
        <mxCell id="MyfAIEl0TEhj5KPefulC-427" value="Updated Prompt" style="html=1;whiteSpace=wrap;fillColor=#1ba1e2;strokeColor=#006EAF;fontColor=#ffffff;" vertex="1" parent="MyfAIEl0TEhj5KPefulC-424">
          <mxGeometry x="10" y="44.5" width="100" height="30" as="geometry" />
        </mxCell>
        <mxCell id="MyfAIEl0TEhj5KPefulC-428" value="" style="shape=message;html=1;html=1;outlineConnect=0;labelPosition=center;verticalLabelPosition=bottom;align=center;verticalAlign=top;fillColor=#E6E6E6;" vertex="1" parent="MyfAIEl0TEhj5KPefulC-424">
          <mxGeometry x="95" y="80" width="30" height="20" as="geometry" />
        </mxCell>
        <mxCell id="MyfAIEl0TEhj5KPefulC-429" value="" style="rounded=0;whiteSpace=wrap;html=1;" vertex="1" parent="1">
          <mxGeometry x="629.5" y="500" width="120" height="60" as="geometry" />
        </mxCell>
        <mxCell id="MyfAIEl0TEhj5KPefulC-416" value="" style="shape=message;html=1;html=1;outlineConnect=0;labelPosition=center;verticalLabelPosition=bottom;align=center;verticalAlign=top;fillColor=#E6E6E6;" vertex="1" parent="1">
          <mxGeometry x="624.5" y="490" width="30" height="20" as="geometry" />
        </mxCell>
        <mxCell id="MyfAIEl0TEhj5KPefulC-430" value="Updated Evaluation" style="html=1;whiteSpace=wrap;fillColor=#60a917;strokeColor=#2D7600;fontColor=#ffffff;" vertex="1" parent="1">
          <mxGeometry x="639.5" y="515" width="100" height="30" as="geometry" />
        </mxCell>
        <mxCell id="MyfAIEl0TEhj5KPefulC-431" value="" style="endArrow=none;html=1;rounded=0;strokeWidth=2;endFill=0;" edge="1" parent="1">
          <mxGeometry width="50" height="50" relative="1" as="geometry">
            <mxPoint x="540" y="440" as="sourcePoint" />
            <mxPoint x="540" y="500" as="targetPoint" />
          </mxGeometry>
        </mxCell>
        <mxCell id="MyfAIEl0TEhj5KPefulC-309" value="" style="shape=or;whiteSpace=wrap;html=1;direction=south;" vertex="1" parent="1">
          <mxGeometry x="680" y="440" width="20" height="10" as="geometry" />
        </mxCell>
        <mxCell id="MyfAIEl0TEhj5KPefulC-438" value="" style="endArrow=classic;html=1;rounded=0;strokeWidth=2;strokeColor=#0000CC;" edge="1" parent="1">
          <mxGeometry width="50" height="50" relative="1" as="geometry">
            <mxPoint x="100" y="290" as="sourcePoint" />
            <mxPoint x="100" y="320" as="targetPoint" />
          </mxGeometry>
        </mxCell>
        <mxCell id="MyfAIEl0TEhj5KPefulC-439" value="" style="endArrow=classic;html=1;rounded=0;strokeWidth=2;strokeColor=#CC6600;" edge="1" parent="1">
          <mxGeometry width="50" height="50" relative="1" as="geometry">
            <mxPoint x="240" y="170" as="sourcePoint" />
            <mxPoint x="270" y="170" as="targetPoint" />
          </mxGeometry>
        </mxCell>
        <mxCell id="MyfAIEl0TEhj5KPefulC-440" value="" style="endArrow=classic;html=1;rounded=0;strokeWidth=2;strokeColor=#CC6600;" edge="1" parent="1">
          <mxGeometry width="50" height="50" relative="1" as="geometry">
            <mxPoint x="380" y="170" as="sourcePoint" />
            <mxPoint x="410" y="170" as="targetPoint" />
          </mxGeometry>
        </mxCell>
        <mxCell id="MyfAIEl0TEhj5KPefulC-441" value="" style="endArrow=classic;html=1;rounded=0;strokeWidth=2;strokeColor=#CC6600;" edge="1" parent="1">
          <mxGeometry width="50" height="50" relative="1" as="geometry">
            <mxPoint x="540" y="230" as="sourcePoint" />
            <mxPoint x="570" y="230" as="targetPoint" />
          </mxGeometry>
        </mxCell>
        <mxCell id="MyfAIEl0TEhj5KPefulC-277" value="" style="endArrow=classic;html=1;rounded=0;strokeWidth=2;startArrow=oval;startFill=1;" edge="1" parent="1">
          <mxGeometry width="50" height="50" relative="1" as="geometry">
            <mxPoint x="549.5" y="700" as="sourcePoint" />
            <mxPoint x="550" y="590" as="targetPoint" />
          </mxGeometry>
        </mxCell>
        <mxCell id="MyfAIEl0TEhj5KPefulC-442" value="" style="endArrow=classic;html=1;rounded=0;strokeWidth=2;strokeColor=#CC6600;" edge="1" parent="1">
          <mxGeometry width="50" height="50" relative="1" as="geometry">
            <mxPoint x="500" y="400" as="sourcePoint" />
            <mxPoint x="500" y="370" as="targetPoint" />
          </mxGeometry>
        </mxCell>
        <mxCell id="MyfAIEl0TEhj5KPefulC-444" value="" style="endArrow=classic;html=1;rounded=0;strokeWidth=2;strokeColor=#CC6600;" edge="1" parent="1">
          <mxGeometry width="50" height="50" relative="1" as="geometry">
            <mxPoint x="440" y="380" as="sourcePoint" />
            <mxPoint x="440" y="350" as="targetPoint" />
          </mxGeometry>
        </mxCell>
        <mxCell id="MyfAIEl0TEhj5KPefulC-446" value="" style="endArrow=classic;html=1;rounded=0;strokeWidth=2;strokeColor=#CC6600;" edge="1" parent="1">
          <mxGeometry width="50" height="50" relative="1" as="geometry">
            <mxPoint x="400" y="410" as="sourcePoint" />
            <mxPoint x="430" y="410" as="targetPoint" />
          </mxGeometry>
        </mxCell>
        <mxCell id="MyfAIEl0TEhj5KPefulC-455" value="&lt;p style=&quot;line-height: 18px; white-space: pre;&quot;&gt;&lt;font style=&quot;&quot; face=&quot;Helvetica&quot;&gt;&lt;span style=&quot;font-weight: bold;&quot;&gt;Figure 2: Social Learning Message Flow.&lt;/span&gt; Diagram illustrating the exchange of prompts between two agents during socialising, including &lt;br/&gt;&lt;/font&gt;&lt;span style=&quot;background-color: initial;&quot;&gt;the evaluation process, confidence score calculations, and prompt updating mechanisms that drive memetic evolution.&lt;/span&gt;&lt;/p&gt;" style="text;html=1;align=center;verticalAlign=middle;whiteSpace=wrap;rounded=0;" vertex="1" parent="1">
          <mxGeometry x="350" y="1066" width="60" height="30" as="geometry" />
        </mxCell>
        <mxCell id="MyfAIEl0TEhj5KPefulC-170" value="" style="endArrow=oval;html=1;rounded=0;endFill=1;strokeWidth=2;" edge="1" parent="1" source="MyfAIEl0TEhj5KPefulC-231">
          <mxGeometry width="50" height="50" relative="1" as="geometry">
            <mxPoint x="250" y="530" as="sourcePoint" />
            <mxPoint x="250" y="410" as="targetPoint" />
          </mxGeometry>
        </mxCell>
        <mxCell id="MyfAIEl0TEhj5KPefulC-436" value="" style="shape=or;whiteSpace=wrap;html=1;direction=north;" vertex="1" parent="1">
          <mxGeometry x="540" y="630" width="20" height="10" as="geometry" />
        </mxCell>
        <mxCell id="MyfAIEl0TEhj5KPefulC-197" value="" style="endArrow=oval;html=1;rounded=0;endFill=1;strokeWidth=2;" edge="1" parent="1">
          <mxGeometry width="50" height="50" relative="1" as="geometry">
            <mxPoint x="390" y="590" as="sourcePoint" />
            <mxPoint x="389.39" y="670" as="targetPoint" />
          </mxGeometry>
        </mxCell>
        <mxCell id="MyfAIEl0TEhj5KPefulC-202" value="" style="endArrow=classic;html=1;rounded=0;startArrow=oval;startFill=1;strokeWidth=2;" edge="1" parent="1">
          <mxGeometry width="50" height="50" relative="1" as="geometry">
            <mxPoint x="249.5" y="700" as="sourcePoint" />
            <mxPoint x="249" y="590" as="targetPoint" />
            <Array as="points" />
          </mxGeometry>
        </mxCell>
        <mxCell id="MyfAIEl0TEhj5KPefulC-434" value="" style="shape=or;whiteSpace=wrap;html=1;direction=north;" vertex="1" parent="1">
          <mxGeometry x="240" y="630" width="20" height="10" as="geometry" />
        </mxCell>
        <mxCell id="MyfAIEl0TEhj5KPefulC-433" value="" style="shape=or;whiteSpace=wrap;html=1;direction=south;" vertex="1" parent="1">
          <mxGeometry x="79.5" y="640" width="20" height="10" as="geometry" />
        </mxCell>
        <mxCell id="MyfAIEl0TEhj5KPefulC-435" value="" style="shape=or;whiteSpace=wrap;html=1;direction=south;" vertex="1" parent="1">
          <mxGeometry x="379.5" y="640" width="20" height="10" as="geometry" />
        </mxCell>
        <mxCell id="MyfAIEl0TEhj5KPefulC-437" value="" style="shape=or;whiteSpace=wrap;html=1;direction=south;" vertex="1" parent="1">
          <mxGeometry x="679.5" y="640" width="20" height="10" as="geometry" />
        </mxCell>
        <mxCell id="zRX7EUckq_Tylfb2WUwO-1" value="Mid-Background" parent="0" />
        <mxCell id="zRX7EUckq_Tylfb2WUwO-2" value="Midground" parent="0" />
        <mxCell id="zRX7EUckq_Tylfb2WUwO-3" value="Foreground" parent="0" />
      </root>
    </mxGraphModel>
  </diagram>
</mxfile>
